<?xml version="1.0" standalone="no"?>
<!DOCTYPE svg PUBLIC "-//W3C//DTD SVG 20010904//EN"
 "http://www.w3.org/TR/2001/REC-SVG-20010904/DTD/svg10.dtd">
<svg version="1.0" xmlns="http://www.w3.org/2000/svg"
 width="250.000000pt" height="250.000000pt" viewBox="0 0 250.000000 250.000000"
 preserveAspectRatio="xMidYMid meet">
<metadata>
Created by potrace 1.11, written by Peter Selinger 2001-2013
</metadata>
<g transform="translate(0.000000,250.000000) scale(0.100000,-0.100000)"
fill="#000000" stroke="none">
<path d="M732 1928 c5 -15 28 -23 28 -10 0 5 -7 13 -16 16 -10 4 -14 1 -12 -6z"/>
<path d="M176 1885 c-3 -8 -1 -15 3 -15 5 0 11 7 15 15 3 8 1 15 -3 15 -5 0
-11 -7 -15 -15z"/>
<path d="M362 1834 c-19 -19 -38 -31 -43 -28 -5 3 -9 1 -9 -4 0 -5 14 -12 30
-15 33 -7 41 -35 16 -56 -11 -9 -18 -4 -35 25 -13 21 -27 34 -35 31 -20 -8
-40 10 -41 35 0 19 -5 23 -28 20 -16 -2 -35 2 -42 8 -11 9 -21 -5 -51 -67 -76
-160 -112 -308 -121 -491 l-6 -122 24 2 c13 1 36 -6 51 -16 21 -14 26 -24 23
-48 -2 -17 -6 -32 -9 -35 -9 -9 -26 8 -26 25 0 9 -11 22 -25 29 -23 10 -25 9
-25 -12 0 -13 5 -25 12 -27 8 -3 13 -30 13 -74 2 -67 9 -101 42 -191 l16 -43
428 0 429 0 0 29 c0 15 9 40 20 54 25 31 26 96 5 198 -9 40 -14 73 -12 75 7 7
137 -119 149 -144 24 -49 115 -84 138 -52 3 3 13 9 22 13 9 3 29 25 44 49 15
23 36 49 47 58 21 18 34 60 17 60 -5 0 -14 -8 -19 -17 -6 -10 -11 -14 -11 -9
0 4 -10 2 -22 -6 -25 -15 -148 -14 -223 2 -21 5 -36 0 -30 -10 11 -18 -7 -10
-26 12 -11 11 -19 17 -19 12 0 -4 -27 18 -60 51 -49 48 -64 71 -77 115 -8 30
-22 62 -29 71 -22 24 -74 194 -74 239 0 24 6 42 15 47 20 12 30 103 10 103 -7
0 -17 9 -20 21 -4 13 -12 18 -22 15 -22 -9 -36 3 -23 19 13 16 -5 59 -21 50
-12 -8 -12 -58 0 -71 5 -5 11 -20 13 -34 2 -17 10 -26 26 -28 12 -2 22 -10 22
-18 0 -25 -62 -14 -76 14 -14 28 -43 51 -65 52 -9 0 -24 9 -34 20 -21 24 -45
26 -45 5 0 -8 -4 -15 -9 -15 -4 0 -21 -18 -35 -41 -23 -34 -31 -40 -51 -35
-19 5 -28 0 -41 -19 -21 -33 -52 -32 -64 1 -14 35 -12 54 3 54 7 0 21 14 31
31 19 32 31 34 81 13 17 -7 18 -6 7 8 -13 16 -5 29 28 41 10 4 8 6 -7 6 -26 1
-73 21 -91 38 -18 17 -21 16 -60 -23z m406 -230 c1 -1 0 -8 -3 -17 -8 -18 -87
-28 -127 -14 -31 10 -38 41 -12 55 11 6 116 -11 142 -24z m-260 -9 c14 -30 9
-32 -18 -5 -23 23 -25 30 -7 30 8 0 19 -11 25 -25z m29 -101 c3 -9 0 -20 -8
-24 -15 -10 -39 6 -39 26 0 19 39 18 47 -2z m-287 -419 c0 -8 -4 -15 -10 -15
-5 0 -10 7 -10 15 0 8 5 15 10 15 6 0 10 -7 10 -15z m280 -126 c0 -5 -7 -9
-15 -9 -15 0 -20 12 -9 23 8 8 24 -1 24 -14z"/>
<path d="M660 1851 c0 -5 -7 -17 -16 -25 -14 -15 -13 -16 15 -16 32 0 36 6 25
34 -7 17 -24 22 -24 7z"/>
<path d="M1655 1770 c-3 -5 -2 -10 4 -10 5 0 13 5 16 10 3 6 2 10 -4 10 -5 0
-13 -4 -16 -10z"/>
<path d="M1233 1693 c-17 -19 -20 -30 -13 -44 11 -20 52 -37 57 -22 2 5 34 7
71 5 37 -3 63 -1 59 4 -5 5 -12 9 -15 9 -28 3 -101 45 -76 45 3 0 1 7 -6 15
-18 22 -52 17 -77 -12z"/>
<path d="M991 1691 c-11 -7 -12 -13 -3 -23 9 -12 5 -18 -23 -31 -18 -9 -39
-26 -45 -37 -11 -20 -10 -21 9 -11 11 6 37 11 58 11 22 0 44 5 51 12 9 9 12 9
12 -1 0 -8 6 -11 16 -7 8 3 12 2 9 -4 -3 -6 -2 -10 4 -10 17 0 33 40 27 65 -8
33 -84 56 -115 36z"/>
<path d="M2050 1640 c0 -5 5 -10 10 -10 6 0 10 5 10 10 0 6 -4 10 -10 10 -5 0
-10 -4 -10 -10z"/>
<path d="M1685 1616 c-18 -8 -25 -15 -18 -19 18 -11 63 3 63 19 0 17 -6 17
-45 0z"/>
<path d="M1620 1548 c0 -19 2 -20 10 -8 13 19 13 30 0 30 -5 0 -10 -10 -10
-22z"/>
<path d="M1757 1540 c-4 -17 -9 -19 -32 -10 -39 15 -49 13 -60 -12 -6 -13 -20
-24 -31 -26 -14 -2 -28 -17 -40 -43 -10 -22 -26 -46 -36 -53 -16 -12 -19 -30
-21 -147 -2 -157 13 -235 43 -217 22 14 78 -9 86 -34 3 -10 12 -18 20 -18 8 0
14 -4 14 -9 0 -14 37 -20 49 -8 8 8 11 3 11 -16 0 -29 -23 -37 -37 -13 -11 18
-91 56 -119 56 -12 0 -25 6 -27 13 -4 9 -6 9 -6 -1 -1 -7 15 -29 35 -49 32
-32 36 -40 31 -76 -3 -24 -16 -50 -33 -68 l-28 -29 300 1 c289 1 297 2 234 16
-189 44 -260 77 -260 120 0 18 61 54 79 48 8 -3 24 4 35 15 12 11 41 34 65 51
32 23 40 34 32 42 -17 17 -13 45 8 57 27 14 41 13 41 -5 0 -8 5 -15 10 -15 12
0 9 22 -4 31 -8 6 26 66 46 79 4 3 -7 12 -24 19 -27 12 -32 12 -40 -3 -5 -9
-20 -16 -33 -16 -15 0 -26 -7 -30 -21 -10 -29 -39 -20 -43 14 -4 36 -19 35
-27 -2 -7 -34 -32 -59 -44 -45 -5 5 -11 21 -15 37 -5 23 -2 29 19 39 34 15 32
24 -10 38 -19 6 -37 20 -40 31 -8 25 -25 25 -25 -1 0 -11 7 -20 15 -20 18 0
31 -48 17 -62 -8 -8 -15 -8 -27 2 -12 10 -15 10 -15 -4 0 -9 7 -19 17 -23 14
-5 13 -8 -5 -14 -12 -5 -22 -13 -22 -19 0 -6 5 -8 11 -5 5 4 18 0 28 -9 10 -9
25 -14 32 -11 8 3 30 -8 48 -24 33 -30 33 -31 17 -56 -20 -31 -32 -32 -47 -2
-17 32 -18 32 -34 11 -14 -18 -14 -16 -10 16 3 19 3 29 -1 23 -8 -17 -44 2
-44 22 0 8 -6 15 -14 15 -23 0 -86 40 -86 55 0 7 7 18 15 25 21 17 19 33 -2
20 -90 -55 -82 -52 -116 -32 -25 14 -31 24 -29 43 5 29 20 49 38 49 7 0 29 14
48 31 26 22 41 29 56 24 18 -6 20 -3 15 18 -7 25 15 57 39 57 7 0 34 20 60 45
38 35 45 46 32 51 -9 3 -27 -1 -41 -10 -33 -22 -44 -20 -57 9 -14 30 -24 32
-31 5z m-197 -309 c0 -6 -4 -13 -10 -16 -5 -3 -10 1 -10 9 0 9 5 16 10 16 6 0
10 -4 10 -9z m140 -78 c0 -10 -5 -25 -10 -33 -15 -22 -32 7 -19 32 12 23 29
23 29 1z m128 -130 c9 -15 11 -15 27 1 16 16 18 16 36 0 28 -25 7 -42 -56 -46
-41 -2 -50 0 -53 15 -9 42 27 65 46 30z"/>
<path d="M2080 1520 c0 -5 5 -10 10 -10 6 0 10 5 10 10 0 6 -4 10 -10 10 -5 0
-10 -4 -10 -10z"/>
<path d="M1200 1420 c0 -8 -10 -9 -31 -5 -22 5 -29 4 -25 -4 9 -14 0 -14 -25
-1 -11 6 -19 7 -19 1 0 -5 7 -12 16 -15 11 -4 14 -13 10 -29 -5 -21 -2 -22 39
-19 43 4 44 5 38 33 -5 25 -3 29 13 27 11 -2 21 2 24 7 3 6 -5 11 -17 13 -13
2 -23 -2 -23 -8z"/>
<path d="M1010 1368 c-21 -35 -27 -63 -10 -53 15 9 50 85 39 85 -5 0 -18 -15
-29 -32z"/>
<path d="M1364 1368 c16 -21 30 -38 33 -38 8 0 -16 36 -38 55 -19 16 -18 13 5
-17z"/>
<path d="M2355 1390 c-3 -5 -2 -10 4 -10 5 0 13 5 16 10 3 6 2 10 -4 10 -5 0
-13 -4 -16 -10z"/>
<path d="M2027 1350 c3 -11 9 -17 14 -14 14 8 10 34 -5 34 -9 0 -12 -7 -9 -20z"/>
<path d="M1024 1319 c-3 -6 -2 -15 3 -20 12 -12 201 -15 213 -3 5 5 -29 9 -87
9 -68 0 -97 3 -100 12 -6 16 -20 17 -29 2z"/>
<path d="M1325 1316 c-18 -13 -18 -14 8 -9 15 3 24 9 21 14 -7 12 -7 12 -29
-5z"/>
<path d="M1757 1318 c-6 -17 10 -58 23 -58 5 0 10 5 10 10 0 6 5 10 10 10 6 0
10 -7 10 -16 0 -8 5 -12 10 -9 15 9 12 32 -7 55 -20 22 -48 26 -56 8z"/>
<path d="M2357 1283 c-12 -12 -7 -31 10 -37 24 -9 39 9 23 29 -14 16 -23 19
-33 8z"/>
<path d="M2193 1203 l-43 -45 24 -19 c21 -17 29 -18 53 -7 39 17 37 14 35 56
-5 63 -21 67 -69 15z"/>
<path d="M1176 1215 c-4 -11 1 -15 19 -15 16 0 25 6 25 15 0 8 -9 15 -19 15
-10 0 -21 -7 -25 -15z"/>
<path d="M2455 1219 c-4 -6 -5 -13 -2 -16 7 -7 27 6 27 18 0 12 -17 12 -25 -2z"/>
<path d="M2375 1171 c-6 -5 -21 -11 -35 -13 -20 -2 -26 -9 -28 -35 -3 -29 0
-33 20 -33 13 0 33 7 44 15 12 8 25 11 29 7 3 -4 5 8 3 27 -3 36 -17 48 -33
32z"/>
<path d="M2280 1030 c-13 -11 -20 -23 -15 -28 4 -4 10 -1 12 6 3 6 13 12 24
12 10 0 19 4 19 9 0 20 -18 20 -40 1z"/>
<path d="M2425 1000 c3 -5 8 -10 11 -10 2 0 4 5 4 10 0 6 -5 10 -11 10 -5 0
-7 -4 -4 -10z"/>
<path d="M2392 923 c1 -65 11 -84 32 -63 22 23 25 80 5 80 -7 0 -18 8 -25 18
-12 15 -14 10 -12 -35z"/>
<path d="M635 616 c-101 -63 -100 -80 6 -141 86 -50 111 -51 117 -9 2 14 -12
28 -50 50 l-52 32 40 20 c51 26 67 46 59 72 -10 30 -42 24 -120 -24z m-43 -56
c2 -6 13 -12 25 -12 15 -2 20 -8 17 -21 -2 -14 1 -17 14 -12 32 12 37 10 35
-18 -1 -15 2 -25 8 -22 5 4 9 13 9 21 0 12 4 12 21 4 24 -13 35 -38 23 -50
-11 -11 -114 34 -114 50 0 6 -4 8 -10 5 -5 -3 -10 -1 -10 4 0 6 -3 10 -7 10
-5 -1 -15 -1 -23 0 -13 1 -13 2 0 12 11 8 12 12 3 16 -7 2 -13 9 -13 14 0 12
18 11 22 -1z"/>
<path d="M596 532 c-2 -4 4 -9 15 -9 11 -1 17 2 14 8 -7 11 -22 12 -29 1z"/>
<path d="M661 506 c-8 -10 -9 -16 -1 -21 5 -3 13 1 16 10 9 22 -1 29 -15 11z"/>
<path d="M704 468 c-4 -7 -4 -10 1 -6 4 4 15 2 24 -5 14 -11 14 -10 2 6 -16
20 -18 21 -27 5z"/>
<path d="M833 644 c-8 -21 10 -49 30 -48 9 1 15 -3 14 -10 -1 -6 6 -10 15 -10
10 1 15 -3 11 -9 -4 -7 0 -8 13 -3 10 4 15 4 11 0 -10 -10 31 -36 45 -28 6 4
8 3 4 -4 -3 -6 3 -14 15 -17 26 -8 54 16 46 39 -8 21 -69 57 -85 51 -7 -3 -10
-1 -7 5 7 11 -32 33 -45 25 -6 -4 -9 -1 -8 7 5 21 -51 23 -59 2z m47 2 c0 -2
-9 -6 -20 -9 -11 -3 -18 -1 -14 4 5 9 34 13 34 5z"/>
<path d="M1170 612 c0 -4 17 -6 38 -4 58 5 62 10 10 11 -27 1 -48 -3 -48 -7z"/>
<path d="M1791 598 c0 -9 -7 -19 -13 -21 -10 -4 -10 -6 0 -6 8 -1 12 -18 12
-50 0 -35 4 -51 16 -55 24 -9 31 -7 12 5 -25 14 -25 96 0 102 15 4 15 5 0 6
-9 0 -19 9 -21 19 -4 15 -5 15 -6 0z"/>
<path d="M1174 532 c-2 -64 5 -72 56 -70 l35 1 -40 6 c-36 5 -40 9 -40 36 0
27 4 31 40 36 l40 6 -37 2 c-31 1 -38 5 -38 21 0 11 -3 20 -7 20 -5 0 -9 -26
-9 -58z"/>
<path d="M1310 553 l21 -33 -21 -32 -22 -33 25 29 25 29 17 -27 c10 -15 20
-24 22 -22 3 3 -4 17 -16 32 -18 23 -19 29 -8 43 8 9 17 23 21 31 4 8 -3 3
-16 -13 l-24 -27 -23 27 -22 28 21 -32z"/>
<path d="M1412 495 c1 -49 3 -73 5 -52 4 36 15 47 28 27 10 -16 40 -12 58 8
44 49 -16 135 -61 90 -10 -10 -15 -10 -22 2 -7 10 -9 -15 -8 -75z m86 63 c7
-7 12 -24 12 -38 0 -47 -37 -65 -72 -33 -22 20 -23 41 -1 65 19 21 44 23 61 6z"/>
<path d="M1567 562 c-10 -10 -17 -30 -17 -44 0 -49 63 -77 91 -40 11 14 11 15
-1 5 -28 -25 -80 -9 -80 24 0 9 16 13 50 13 43 0 49 2 43 18 -14 42 -59 54
-86 24z m57 2 c33 -13 17 -34 -24 -34 -41 0 -49 7 -28 28 13 13 28 15 52 6z"/>
<path d="M1692 520 l1 -65 6 50 c5 40 11 52 31 62 17 9 20 13 8 13 -9 0 -20
-5 -24 -11 -4 -8 -9 -7 -15 2 -5 9 -8 -11 -7 -51z"/>
<path d="M1870 565 c-16 -19 -6 -32 36 -50 24 -10 32 -18 28 -29 -7 -19 -45
-21 -64 -3 -12 10 -12 9 -1 -5 16 -22 54 -23 71 -3 16 19 5 34 -37 51 -42 18
-38 40 7 37 23 -1 29 1 19 8 -21 13 -45 11 -59 -6z"/>
<path d="M1368 293 c7 -3 16 -2 19 1 4 3 -2 6 -13 5 -11 0 -14 -3 -6 -6z"/>
<path d="M1335 279 c-4 -6 -5 -12 -2 -15 2 -3 7 2 10 11 7 17 1 20 -8 4z"/>
<path d="M932 258 c-14 -14 -16 -44 -3 -52 5 -4 7 3 4 14 -3 11 0 27 7 35 15
18 9 20 -8 3z"/>
<path d="M972 248 c7 -15 15 -23 17 -17 2 6 -4 18 -13 27 -15 15 -15 15 -4
-10z"/>
<path d="M1100 255 c-6 -8 -10 -19 -8 -24 1 -6 8 1 15 14 13 28 11 31 -7 10z"/>
<path d="M1182 245 c0 -16 2 -22 5 -12 2 9 2 23 0 30 -3 6 -5 -1 -5 -18z"/>
<path d="M1470 255 c-6 -8 -10 -19 -8 -24 1 -6 8 1 15 14 13 28 11 31 -7 10z"/>
<path d="M1509 258 c7 -10 11 -27 8 -38 -3 -11 -1 -18 4 -14 15 9 10 41 -8 55
-16 13 -17 12 -4 -3z"/>
<path d="M1152 230 c0 -19 2 -27 5 -17 2 9 2 25 0 35 -3 9 -5 1 -5 -18z"/>
<path d="M1552 235 c0 -16 2 -22 5 -12 2 9 2 23 0 30 -3 6 -5 -1 -5 -18z"/>
<path d="M1602 230 c0 -19 2 -27 5 -17 2 9 2 25 0 35 -3 9 -5 1 -5 -18z"/>
<path d="M1210 231 c0 -11 4 -22 9 -25 4 -3 6 6 3 19 -5 30 -12 33 -12 6z"/>
</g>
</svg>
